<svg xmlns="http://www.w3.org/2000/svg"
     viewBox="0 0 420 90"
     width="420" height="90">

  <g transform="translate(-1 -35)">
    <g transform="translate(80 80) scale(0.585) translate(-80 -80)">
      <polygon points="19,45 80,10 80,45 50,63"
               fill="#000000" stroke="#ffffff" stroke-width="1" vector-effect="non-scaling-stroke"/>
      <polygon points="80,10 141,45 110,63 80,45"
               fill="#000000" stroke="#ffffff" stroke-width="1" vector-effect="non-scaling-stroke"/>
      <polygon points="141,45 141,115 110,98 110,63"
               fill="#000000" stroke="#ffffff" stroke-width="1" vector-effect="non-scaling-stroke"/>
      <polygon points="141,115 80,150 80,115 110,98"
               fill="#000000" stroke="#ffffff" stroke-width="1" vector-effect="non-scaling-stroke"/>
      <polygon points="80,150 19,115 50,98 80,115"
               fill="#000000" stroke="#ffffff" stroke-width="1" vector-effect="non-scaling-stroke"/>
      <polygon points="19,115 19,45 50,63 50,98"
               fill="#000000" stroke="#ffffff" stroke-width="1" vector-effect="non-scaling-stroke"/>

      <polygon points="80,45 110,63 110,98 80,115 50,98 50,63"
               fill="#000000" stroke="#ffffff" stroke-width="1" vector-effect="non-scaling-stroke"/>

      <line x1="80" y1="80" x2="50" y2="63"
            stroke="#ffffff" stroke-width="1" vector-effect="non-scaling-stroke"/>
      <line x1="80" y1="80" x2="110" y2="63"
            stroke="#ffffff" stroke-width="1" vector-effect="non-scaling-stroke"/>
      <line x1="80" y1="80" x2="80" y2="115"
            stroke="#ffffff" stroke-width="1" vector-effect="non-scaling-stroke"/>
    </g>
  </g>

  <text x="137" y="45"
        fill="#000000"
        font-family="Avenir Next, Helvetica Neue, Arial, sans-serif"
        font-size="60"
        font-weight="500"
        letter-spacing="-0.5"
        dominant-baseline="middle">mirage</text>

</svg>
