<svg role="img" viewBox="0 0 800 800" xmlns="http://www.w3.org/2000/svg"><title>CAMEL-AI</title><g transform="translate(0,800) scale(0.1,-0.1)" fill="#9CA3AF" stroke="none"><path d="M2970 6694 c-69 -14 -320 -58 -559 -100 -473 -81 -513 -89 -545 -106 -72 -37 -151 -117 -245 -246 l-99 -137 21 -17 c43 -33 151 -80 221 -95 50 -10 99 -13 165 -9 82 5 98 3 126 -14 51 -31 142 -50 245 -50 l95 0 0 -648 c1 -679 5 -777 47 -957 89 -384 350 -782 667 -1014 34 -25 72 -53 83 -61 19 -15 18 -23 -66 -468 l-85 -453 85 -516 c46 -284 86 -518 88 -520 2 -2 111 -2 242 -1 l240 3 -109 515 -109 515 109 453 c69 292 110 447 115 435 4 -10 98 -436 208 -948 110 -511 202 -940 205 -952 l5 -23 246 0 247 0 -7 33 c-19 97 -398 1885 -402 1900 -5 16 25 17 525 17 361 0 531 -3 531 -10 0 -9 -388 -1857 -404 -1922 -4 -17 13 -18 247 -18 l252 0 205 970 c112 533 207 967 210 962 4 -4 66 -206 139 -450 l132 -443 -131 -502 c-72 -276 -133 -510 -136 -519 -5 -17 11 -18 245 -18 l251 0 5 22 c3 13 50 247 105 520 l99 497 -109 455 -109 455 34 84 c36 90 66 198 86 317 19 109 16 364 -5 484 -40 222 -149 486 -263 638 -32 42 -162 182 -289 310 -243 246 -278 272 -399 304 -103 28 -250 12 -352 -37 -24 -11 -69 -41 -100 -66 -115 -90 -190 -105 -278 -54 -27 16 -132 111 -233 210 -201 200 -274 259 -360 291 -78 30 -196 36 -292 16 -146 -30 -170 -49 -511 -391 l-309 -310 0 771 0 772 46 63 c26 35 51 70 57 77 5 6 8 12 6 11 -2 0 -60 -12 -129 -25z m-410 -409 l-60 -60 -55 55 c-30 30 -55 60 -55 66 0 7 26 35 58 63 l57 50 58 -57 57 -57 -60 -60z"/></g></svg>
