<svg xmlns="http://www.w3.org/2000/svg"
     viewBox="-2.437 31.892 555.485 197.108"
     width="549.485" height="197.108">

  <rect x="0.563" y="27.892" width="549.485" height="201.108" fill="#ffffff"/>

  <g transform="translate(31 26)">
    <g transform="translate(80 80) scale(0.6428571429) translate(-80 -80)">
      <polygon points="19,45 80,10 80,45 50,63"
               fill="#000000" stroke="#ffffff" stroke-width="3" vector-effect="non-scaling-stroke"/>
      <polygon points="80,10 141,45 110,63 80,45"
               fill="#000000" stroke="#ffffff" stroke-width="3" vector-effect="non-scaling-stroke"/>
      <polygon points="141,45 141,115 110,98 110,63"
               fill="#000000" stroke="#ffffff" stroke-width="3" vector-effect="non-scaling-stroke"/>
      <polygon points="141,115 80,150 80,115 110,98"
               fill="#000000" stroke="#ffffff" stroke-width="3" vector-effect="non-scaling-stroke"/>
      <polygon points="80,150 19,115 50,98 80,115"
               fill="#000000" stroke="#ffffff" stroke-width="3" vector-effect="non-scaling-stroke"/>
      <polygon points="19,115 19,45 50,63 50,98"
               fill="#000000" stroke="#ffffff" stroke-width="3" vector-effect="non-scaling-stroke"/>

      <polygon points="80,45 110,63 110,98 80,115 50,98 50,63"
               fill="#000000" stroke="#ffffff" stroke-width="3" vector-effect="non-scaling-stroke"/>

      <line x1="80" y1="80" x2="50" y2="63"
            stroke="#ffffff" stroke-width="3" vector-effect="non-scaling-stroke"/>
      <line x1="80" y1="80" x2="110" y2="63"
            stroke="#ffffff" stroke-width="3" vector-effect="non-scaling-stroke"/>
      <line x1="80" y1="80" x2="80" y2="115"
            stroke="#ffffff" stroke-width="3" vector-effect="non-scaling-stroke"/>
    </g>
  </g>

  <text x="174" y="106"
        fill="#000000"
        font-family="Avenir Next, Helvetica Neue, Arial, sans-serif"
        font-size="90"
        font-weight="700"
        letter-spacing="-1"
        dominant-baseline="middle">mirage</text>

  <text x="275.5" y="178"
        fill="#000000"
        font-family="Avenir Next, Helvetica Neue, Arial, sans-serif"
        font-size="16"
        font-weight="500"
        letter-spacing="0.4"
        text-anchor="middle">A Unified Virtual Filesystem for AI Agents</text>

  <text x="275.5" y="205"
        fill="#000000"
        font-family="Avenir Next, Helvetica Neue, Arial, sans-serif"
        font-size="12"
        font-weight="400"
        letter-spacing="0.2"
        text-anchor="middle">It seems real, but it isn&apos;t; it&apos;s a mirage.</text>

</svg>
